Coordinates
version=1
nRows=17
nColumns=24
inDegrees=yes

Units are S.I. units (second, meters, Newtons, ...)
Angles are in degrees.

endheader
time	pelvis_tilt	pelvis_list	pelvis_rotation	pelvis_tx	pelvis_ty	pelvis_tz	hip_flexion_r	hip_adduction_r	hip_rotation_r	knee_angle_r	ankle_angle_r	subtalar_angle_r	mtp_angle_r	hip_flexion_l	hip_adduction_l	hip_rotation_l	knee_angle_l	ankle_angle_l	subtalar_angle_l	mtp_angle_l	lumbar_extension	lumbar_bending	lumbar_rotation
      1.06250000	     -1.22577545	     -1.39093196	      3.38339737	      0.58534109	      1.01452749	      0.26718327	      9.84085469	      6.91849884	      4.37920217	    -15.65476457	      4.29784425	    -18.72075892	      6.36875758	     13.94188591	     -1.52735450	     -0.00793134	    -67.16478691	      5.66887635	     -7.80894660	     10.81427122	      0.62088949	      2.89878795	      0.45457534
      1.06666667	     -1.23313612	     -1.30521366	      3.07495668	      0.59013275	      1.01510953	      0.26762236	      9.39001517	      6.86147142	      4.57130231	    -15.33817992	      4.37357530	    -18.53006882	      6.46084728	     14.50065289	     -1.46041166	     -0.27532179	    -66.96750918	      5.86139980	     -7.74722737	     10.72685357	      0.58300920	      2.81493490	      0.72032199
      1.07083333	     -1.24157442	     -1.21667430	      2.77357862	      0.59491387	      1.01566925	      0.26804692	      8.94054380	      6.79630515	      4.75945856	    -15.01951239	      4.44587487	    -18.35242651	      6.55752098	     15.05445565	     -1.39366364	     -0.53940142	    -66.73670204	      6.04180297	     -7.71040413	     10.63548680	      0.55038366	      2.72412082	      0.99101395
      1.07500000	     -1.24068527	     -1.12684223	      2.46719776	      0.59967678	      1.01621617	      0.26848082	      8.48606233	      6.72778037	      4.95295972	    -14.70794972	      4.51863685	    -18.17080925	      6.66111682	     15.58799525	     -1.33408643	     -0.81122529	    -66.46859308	      6.21418380	     -7.68727158	     10.53823219	      0.50232543	      2.63116773	      1.26466181
      1.07916667	     -1.23540442	     -1.03734452	      2.16905123	      0.60441917	      1.01673771	      0.26890874	      8.03043364	      6.65533858	      5.14107420	    -14.39941286	      4.59495523	    -17.99477906	      6.76391419	     16.11277279	     -1.28007931	     -1.07853075	    -66.17293628	      6.38348677	     -7.66972671	     10.44094094	      0.45142693	      2.53795703	      1.52044146
      1.08333333	     -1.25820119	     -0.95818304	      1.87122051	      0.60914519	      1.01717859	      0.26932476	      7.60985440	      6.58958670	      5.33616559	    -14.09510597	      4.64191795	    -17.82585071	      6.80856725	     16.66479552	     -1.23870613	     -1.34209880	    -65.85570731	      6.54105329	     -7.68402772	     10.40059329	      0.43479516	      2.45793634	      1.63992417
      1.08750000	     -1.25358073	     -0.87288422	      1.58976453	      0.61385491	      1.01763469	      0.26972804	      7.16038486	      6.51441713	      5.53086590	    -13.79651291	      4.74753820	    -17.66939006	      6.90051223	     17.17875890	     -1.19646496	     -1.59575651	    -65.49995822	      6.69468139	     -7.66969871	     10.31128360	      0.37877526	      2.36543258	      2.00227653
      1.09166667	     -1.28575405	     -0.80360992	      1.31203991	      0.61856033	      1.01799941	      0.27009875	      6.75344400	      6.44887100	      5.71211074	    -13.49363048	      4.79495246	    -17.50698398	      6.93238422	     17.72912734	     -1.16617416	     -1.83253390	    -65.12652588	      6.84527885	     -7.69620385	     10.28194354	      0.37808090	      2.30632264	      2.08723758
      1.09583333	     -1.29605693	     -0.72898415	      1.01331860	      0.62323899	      1.01835208	      0.27054686	      6.33614236	      6.38308593	      5.92137479	    -13.21927714	      4.88249471	    -17.35828134	      6.98603450	     18.24582381	     -1.15978025	     -2.11525349	    -64.72390007	      6.98120417	     -7.70233689	     10.22800626	      0.33944168	      2.19844975	      2.34872277
      1.10000000	     -1.30128639	     -0.65020425	      0.74955043	      0.62791198	      1.01870032	      0.27089829	      5.90619204	      6.30166258	      6.10622460	    -12.92938611	      4.99008901	    -17.21263220	      7.07210165	     18.74800076	     -1.12168229	     -2.33352360	    -64.28187973	      7.10604360	     -7.71757913	     10.13362125	      0.29986397	      2.12933071	      2.70330391
      1.10416667	     -1.31639708	     -0.58088625	      0.47157614	      0.63256676	      1.01899736	      0.27127426	      5.49766817	      6.22858006	      6.29834466	    -12.65528221	      5.04861985	    -17.05696265	      7.10999735	     19.25366304	     -1.11079635	     -2.57855852	    -63.81791562	      7.23030369	     -7.74209798	     10.09212516	      0.27150733	      2.05136834	      2.80923618
      1.10833333	     -1.33654004	     -0.51477121	      0.20010955	      0.63722947	      1.01926453	      0.27165161	      5.09454469	      6.15759741	      6.49205798	    -12.38359877	      5.13736551	    -16.91943483	      7.15690572	     19.75425231	     -1.10939020	     -2.82091571	    -63.32323908	      7.33709700	     -7.76050586	     10.03574786	      0.25642847	      1.97085703	      3.03345891
      1.11250000	     -1.32966893	     -0.44902074	     -0.06186141	      0.64187077	      1.01953925	      0.27199369	      4.66329644	      6.08106966	      6.68137264	    -12.11117486	      5.23610599	    -16.78594084	      7.21252851	     20.21563719	     -1.10101069	     -3.03936742	    -62.79615070	      7.43453366	     -7.76917444	      9.96310773	      0.20762466	      1.91135651	      3.29974709
      1.11666667	     -1.35629820	     -0.39225067	     -0.32028556	      0.64647554	      1.01972498	      0.27232288	      4.27661906	      6.01089733	      6.87776324	    -11.84832111	      5.29902125	    -16.63610122	      7.24360679	     20.71266346	     -1.10247050	     -3.24661359	    -62.25573849	      7.52663630	     -7.78052157	      9.92145216	      0.17495592	      1.84459742	      3.42796246
      1.12083333	     -1.34030818	     -0.32763494	     -0.57179131	      0.65109015	      1.01995568	      0.27264607	      3.84193869	      5.92950447	      7.06752536	    -11.58628844	      5.41829168	    -16.50587009	      7.30348355	     21.14483838	     -1.09516976	     -3.44569183	    -61.67106785	      7.59607281	     -7.78348106	      9.82884778	      0.10805609	      1.77442080	      3.75347303
      1.12500000	     -1.38305584	     -0.28097021	     -0.82045441	      0.65568579	      1.02004879	      0.27296127	      3.47956317	      5.86452086	      7.25032690	    -11.33405806	      5.48045122	    -16.35765906	      7.32439839	     21.64143800	     -1.11178056	     -3.63722195	    -61.07923799	      7.66680534	     -7.77739847	      9.79713143	      0.10582336	      1.71531254	      3.82795632
      1.12916667	     -1.40357832	     -0.22255429	     -1.07708766	      0.66027971	      1.02015384	      0.27327945	      3.09937792	      5.78454885	      7.44562612	    -11.09717658	      5.57490461	    -16.21884435	      7.34712907	     22.09534752	     -1.12108093	     -3.83739125	    -60.44802793	      7.70957888	     -7.75547725	      9.75862157	      0.07946565	      1.64307552	      3.98560691
